# xmcd
#
# Track frame offsets: 
#        150
#        18160
#        34537
#        50930
#        68319
#        94560
#        110840
#        127443
#        145555
#        162080
#        179549
#
# Disc length: 2606 seconds
#
# Revision: 1
# Processed by: cddbd v1.5.2PL0 Copyright (c) Steve Scherf et al.
# Submitted via: ExactAudioCopy v0.99pb5
#
DISCID=920a2c0b
DTITLE=Willy Porter - Willy Porter (SACD)
DYEAR=2002
DGENRE=Blues
TTITLE0=Unconditional
TTITLE1=If Love Were An Airplane
TTITLE2=Dandelion On The Minefield
TTITLE3=Breathe
TTITLE4=Big Yellow Pine
TTITLE5=Dirty Movie
TTITLE6=Dishwater Blonde
TTITLE7=All Fall Down
TTITLE8=Everything But Sorry
TTITLE9=How Did You Know?
TTITLE10=Blue Light
EXTD=
EXTT0=
EXTT1=
EXTT2=
EXTT3=
EXTT4=
EXTT5=
EXTT6=
EXTT7=
EXTT8=
EXTT9=
EXTT10=
PLAYORDER=
